<svg viewBox="0 0 20 20" width="40" height="40" xmlns="http://www.w3.org/2000/svg" xmlns:xlink="http://www.w3.org/1999/xlink">
    <path fill="currentColor" d="M17.545 15.467l-3.779-3.779c0.57-0.935 0.898-2.035 0.898-3.21 0-3.417-2.961-6.377-6.378-6.377C4.869 2.1 2.1 4.87 2.1 8.287c0 3.416 2.961 6.377 6.377 6.377 1.137 0 2.2-0.309 3.115-0.844l3.799 3.801c0.372 0.371 0.975 0.371 1.346 0l0.943-0.943c0.371-0.371 0.236-0.84-0.135-1.211zM4.004 8.287c0-2.366 1.917-4.283 4.282-4.283 2.366 0 4.474 2.107 4.474 4.474 0 2.365-1.918 4.283-4.283 4.283-2.366-1e-3-4.473-2.109-4.473-4.474z" />
</svg>